<?xml version="1.0" encoding="UTF-8" standalone="no"?>
<svg
   xml:space="preserve"
   width="137.795"
   height="184.632"
   version="1.1"
   id="svg115"
   xmlns="http://www.w3.org/2000/svg"
   xmlns:svg="http://www.w3.org/2000/svg"><defs
     id="defs115" /><path
     style="opacity:.4;fill:#b7b7b7"
     d="M268.947 197.201s65.088-7.802 137.795 2.414c0 0-27.279 5.135-71.615 5.135-36.643 0-66.18-7.549-66.18-7.549z"
     transform="translate(-268.947 -20.118)"
     id="path1" /><g
     transform="translate(-268.947 -20.118)"
     id="g114"><linearGradient
       id="a"
       gradientUnits="userSpaceOnUse"
       x1="345.486"
       y1="207.358"
       x2="339.911"
       y2="132.704"><stop
         offset="0"
         style="stop-color:#f6c295"
         id="stop1" /><stop
         offset="1"
         style="stop-color:#f69c75"
         id="stop2" /></linearGradient><path
       style="fill:url(#a)"
       d="M354.488 152.392c1.156 7.327-.445 12.668-4.893 19.017-4.447 6.349-18.059 25.301-18.059 25.301-.404.367-.744.508-1.021.508-.934-.008-1.201-1.645-1.201-1.645s7.293-22.268 8.539-26.248c1.049-3.354 7.469-23.522 9.729-31.077.234-.788.424-1.436.559-1.917 2.586 4.806 6.215 9.851 8.23 12.03z"
       id="path2" /><linearGradient
       id="b"
       gradientUnits="userSpaceOnUse"
       x1="330.516"
       y1="166.773"
       x2="356.371"
       y2="166.773"><stop
         offset="0"
         style="stop-color:#f6c295"
         id="stop3" /><stop
         offset="1"
         style="stop-color:#f69c75"
         id="stop4" /></linearGradient><path
       style="opacity:.4;fill:url(#b)"
       d="M354.488 152.392c1.156 7.327-.445 12.668-4.893 19.017-4.447 6.349-18.059 25.301-18.059 25.301-.404.367-.744.508-1.021.508 1.691-3.457 5.164-10.204 10.363-18.702 7.648-12.508 11.92-28.238 11.502-30.155-.303-1.392-3.217-7.085-4.799-10.113.234-.788.424-1.436.559-1.917 2.586 4.806 6.215 9.851 8.23 12.03z"
       id="path4" /><linearGradient
       id="c"
       gradientUnits="userSpaceOnUse"
       x1="330.325"
       y1="77.013"
       x2="384.004"
       y2="77.013"><stop
         offset="0"
         style="stop-color:#e8d9d0"
         id="stop5" /><stop
         offset=".995"
         style="stop-color:#d6c9c4"
         id="stop6" /></linearGradient><path
       style="fill:url(#c)"
       d="M379.541 71.956c-5.102-.836-12.51-1.995-12.51-1.995s.313 4.561-.342 9.692c-.709.473-1.437.96-2.186 1.47 0 0-.924 9.603-3.076 13.973-.008.021-.02.039-.029.061-1.217 2.433-3.658 4.715-3.658 4.715s-.555-.199-1.52-.506a100.958 100.958 0 0 0-3.162-.949c-3.393-.951-8.152-2.078-12.65-2.438a34.83 34.83 0 0 0-2.822-.114s.008.078.02.227a130.93 130.93 0 0 0-3.733-.726c-.264-1.192-1.072-4.562-1.848-8.597-.996-5.167-1.943-11.422-1.645-15.596.416-5.811 2.549-9.597 5.053-11.974a13.868 13.868 0 0 1 2.152-1.676c2.355-1.483 4.475-2.377 6.502-2.868.053.21.088.398.109.545 0 0 2.004 2.085 3.865 4.614.932 1.264 1.828 2.641 2.422 3.918l.029-.16.15-.868.496-2.851.574-3.283h-.004a3.003 3.003 0 0 1-.355 0c-.992-.071-2.68-1.1-4.324-2.37 2.272-.156 4.523.096 6.992.483.367.058.752.125 1.146.196 2.16.392 4.725.989 7.318 1.732 2.168.619 4.352 1.342 6.342 2.132 1.971.779 3.75 1.626 5.119 2.501 3.256 2.082 6.801 6.765 8.684 9.461-.664.244-1.65.632-3.109 1.251z"
       id="path6" /><path
       style="opacity:.3;fill:#d1d1d1"
       d="M340.408 95.979a34.83 34.83 0 0 0-2.822-.114s.008.078.02.227a130.93 130.93 0 0 0-3.733-.726c-.264-1.192-1.072-4.562-1.848-8.597 2.772 4.586 6.153 7.572 8.383 9.21zm39.133-24.023c-5.102-.836-12.51-1.995-12.51-1.995s.313 4.561-.342 9.692c-.709.473-1.437.96-2.186 1.47 0 0-.924 9.603-3.076 13.973-.008.021-.02.039-.029.061-1.217 2.433-3.658 4.715-3.658 4.715s-.555-.199-1.52-.506c13.215-19.446 5.457-34.276 5.457-34.276 6.41-.644 6.139-5.017 7.172-6.344 1.971.779 3.75 1.626 5.119 2.501 3.256 2.082 6.801 6.765 8.684 9.461-.666.241-1.652.629-3.111 1.248z"
       id="path7" /><linearGradient
       id="d"
       gradientUnits="userSpaceOnUse"
       x1="364.098"
       y1="50.424"
       x2="363.342"
       y2="40.306"><stop
         offset="0"
         style="stop-color:#383f44"
         id="stop7" /><stop
         offset="1"
         style="stop-color:#2d383f"
         id="stop8" /></linearGradient><path
       style="fill:url(#d)"
       d="M366.971 48.334c-.146.483-1.209.494-2.42.341-1.746-.224-3.793-.801-3.793-.801l2.299-7.08s.389.434.922 1.11c0 .003 0 .003.004.007 1.308 1.658 3.49 4.757 2.988 6.423z"
       id="path8" /><linearGradient
       id="e"
       gradientUnits="userSpaceOnUse"
       x1="363.24"
       y1="50.263"
       x2="362.502"
       y2="40.379"><stop
         offset="0"
         style="stop-color:#383f44"
         id="stop9" /><stop
         offset="1"
         style="stop-color:#2d383f"
         id="stop10" /></linearGradient><path
       style="opacity:.3;fill:url(#e)"
       d="M364.551 48.675c-1.746-.224-3.793-.801-3.793-.801l2.299-7.08s.389.434.922 1.11c0 .003 0 .003.004.007.906 1.929 1.997 4.917.568 6.764z"
       id="path10" /><linearGradient
       id="f"
       gradientUnits="userSpaceOnUse"
       x1="363.53"
       y1="27.377"
       x2="352.617"
       y2="33.427"><stop
         offset="0"
         style="stop-color:#383f44"
         id="stop11" /><stop
         offset="1"
         style="stop-color:#2d383f"
         id="stop12" /></linearGradient><path
       style="fill:url(#f)"
       d="M364.697 36.463c-.047 1.082-.156 2.1-.355 2.964-.197.851-.477 1.552-.869 2.025 0 0-.1-.075-.273-.21 0 0-2.961-4.38-8.205-6.754a8.8 8.8 0 0 0-2.652-.747c-1.383-.836-2.746-1.602-3.992-2.191a139.54 139.54 0 0 0-1.857-.868c-3.215-1.478-4.951-2.114-5.717-2.363a7.072 7.072 0 0 0-.492-.149s4.156-3.583 7.725-6.045c1.156-.801 2.258-1.484 3.129-1.887 2.309-1.066 12.768 5.313 12.768 5.313s1.007 6.112.79 10.912z"
       id="path12" /><linearGradient
       id="g"
       gradientUnits="userSpaceOnUse"
       x1="359.925"
       y1="29.789"
       x2="351.477"
       y2="34.472"><stop
         offset="0"
         style="stop-color:#383f44"
         id="stop13" /><stop
         offset="1"
         style="stop-color:#2d383f"
         id="stop14" /></linearGradient><path
       style="opacity:.4;fill:url(#g)"
       d="M364.697 36.463c-.047 1.082-.156 2.1-.355 2.964-1.311-1.936-6.065-7.19-17.85-8.745-3.215-1.478-4.951-2.114-5.717-2.363 5.825.014 15.961 1.188 23.922 8.144z"
       id="path14" /><linearGradient
       id="h"
       gradientUnits="userSpaceOnUse"
       x1="350.785"
       y1="28.238"
       x2="345.964"
       y2="30.91"><stop
         offset="0"
         style="stop-color:#383f44"
         id="stop15" /><stop
         offset="1"
         style="stop-color:#2d383f"
         id="stop16" /></linearGradient><path
       style="opacity:.3;fill:url(#h)"
       d="M354.008 34.104a8.8 8.8 0 0 0-1.666-.363c-1.383-.836-2.746-1.602-3.992-2.191-6.109-2.907-8.066-3.381-8.066-3.381s4.156-3.583 7.725-6.045c.993 2.436 3.522 8.091 5.999 11.98z"
       id="path16" /><linearGradient
       id="i"
       gradientUnits="userSpaceOnUse"
       x1="320.485"
       y1="117.681"
       x2="348.985"
       y2="209.182"><stop
         offset="0"
         style="stop-color:#4f3429"
         id="stop17" /><stop
         offset="1"
         style="stop-color:#41342c"
         id="stop18" /></linearGradient><path
       style="fill:url(#i)"
       d="M389.092 143.573c-1.424 8.66-5.455 50.409-5.455 50.409s-.291.02-.658.035c-.504.021-1.152.032-1.359-.035-.355-.117-7.828-26.214-9.25-33.113-1.424-6.899 2.018-16.282 2.018-16.282l-26.332-22.954s-28.465 30.601-35.227 37.479c-6.76 6.879-30.01 27.872-30.01 27.872l-.711-.509-.947-.677s10.871-22.466 17.67-36.055c6.762-13.515 13.877-11.945 13.877-11.945 2.584-3.722 9.547-15.563 14.992-24.932 4.01-6.904 7.189-12.466 7.189-12.466l22.002.474c3.836 3.462 11.566 13.671 18.492 23.235a998.853 998.853 0 0 1 13.709 19.464z"
       id="path18" /><path
       style="opacity:.2;fill:#271511"
       d="M382.978 194.018c-.504.021-1.152.032-1.359-.035-.355-.117-7.828-26.214-9.25-33.113-1.424-6.899 2.018-16.282 2.018-16.282l-26.332-22.954s-28.465 30.601-35.227 37.479c-6.76 6.879-30.01 27.872-30.01 27.872l-.711-.509c5.693-5.968 21.103-22.093 28.348-29.409 8.984-9.073 28.377-30.245 28.377-30.245-.445-2.847-1.246-10.496-1.246-10.496-3.148-.143-8.076-2.53-9.887-3.458 4.01-6.904 7.189-12.466 7.189-12.466l22.002.474c3.836 3.462 11.566 13.671 18.492 23.235-8.113 11.796 4.014 20.058 4.014 20.058s-2.936 13.344-1.424 23.662c1.131 7.713 3.755 20.315 5.006 26.187z"
       id="path19" /><path
       style="opacity:.8;fill:#d1d1d1"
       d="M354.375 98.796c-.41-.121-.852-.249-1.316-.38 4.711-13.564-.734-29.986-2.545-34.843l.15-.868c1.313 3.288 4.353 11.789 5.275 21.93.653 7.155-.441 11.603-1.564 14.161z"
       id="path20" /><linearGradient
       id="j"
       gradientUnits="userSpaceOnUse"
       x1="347.051"
       y1="57.096"
       x2="362.907"
       y2="57.096"><stop
         offset="0"
         style="stop-color:#e8d9d0"
         id="stop20" /><stop
         offset=".995"
         style="stop-color:#d6c9c4"
         id="stop21" /></linearGradient><path
       style="opacity:.4;fill:url(#j)"
       d="M362.508 56.613c-1.26 1.506-4.184 4.142-11.348 3.241l.574-3.283h-.004a3.003 3.003 0 0 1-.355 0c-.992-.071-2.68-1.1-4.324-2.37 2.272-.156 4.523.096 6.992.483.367.058.752.125 1.146.196 2.161.392 4.725.99 7.319 1.733z"
       id="path21" /><linearGradient
       id="k"
       gradientUnits="userSpaceOnUse"
       x1="335.434"
       y1="57.527"
       x2="348.389"
       y2="57.527"><stop
         offset="0"
         style="stop-color:#e8d9d0"
         id="stop22" /><stop
         offset=".995"
         style="stop-color:#d6c9c4"
         id="stop23" /></linearGradient><path
       style="opacity:.4;fill:url(#k)"
       d="M348.062 59.815c-2.228.588-7.967 1.171-12.629-.615a13.868 13.868 0 0 1 2.152-1.676c2.355-1.483 4.475-2.377 6.502-2.868.053.21.088.398.109.545.001 0 2.005 2.085 3.866 4.614z"
       id="path23" /><linearGradient
       id="l"
       gradientUnits="userSpaceOnUse"
       x1="382.994"
       y1="74.822"
       x2="377.893"
       y2="26.546"><stop
         offset="0"
         style="stop-color:#613c34"
         id="stop24" /><stop
         offset="1"
         style="stop-color:#53332b"
         id="stop25" /></linearGradient><path
       style="fill:url(#l)"
       d="M399.144 72.345s-2.576 1.295-6.523 2.142c-3.775.804-8.807 1.199-14.025-.355-8.188-2.435-12.031-6.875-13.379-8.811-.41-.587-.588-.946-.588-.946s5.426-2.466 6.76-6.124c.955-2.611 1.588-6.622 1.873-8.699.117-.837.174-1.363.174-1.363s-2.935.085-3.381 1.331c0 0-.074-.139-.18-.402a5.166 5.166 0 0 1-.154-.435 10.254 10.254 0 0 1-.459-2.583c-.004-.042-.004-.089-.006-.132a4.579 4.579 0 0 1 .006-.548c.117-2.206 1.467-5.145 4.506-7.521.238-.188.49-.37.75-.552 1.748-1.203 3.971-2.217 6.746-2.857 2.053-.473 3.922-.388 5.594.093.111.031.221.063.332.104a10.159 10.159 0 0 1 1.496.611 11.243 11.243 0 0 1 1.606.972c.17.121.334.246.498.377.086.064.168.136.254.203a14.653 14.653 0 0 1 1.429 1.388v.003c2.242 2.491 3.621 5.693 4.031 8.316.031.206.066.427.107.658.021.16.049.327.078.502a777.761 777.761 0 0 0 .66 3.907c.025.156.051.313.08.474.115.715.238 1.458.363 2.224 1.054 6.565 2.136 14.56 1.352 18.023z"
       id="path25" /><linearGradient
       id="m"
       gradientUnits="userSpaceOnUse"
       x1="365.217"
       y1="58.323"
       x2="397.793"
       y2="58.323"><stop
         offset="0"
         style="stop-color:#7d431b"
         id="stop26" /><stop
         offset=".99"
         style="stop-color:#8f3e1b"
         id="stop27" /></linearGradient><path
       style="opacity:.3;fill:url(#m)"
       d="M392.621 74.486c-3.775.804-8.807 1.199-14.025-.355-8.188-2.435-12.031-6.875-13.379-8.811 3.365-1.121 8.891-4.185 9.283-7.856.447-4.209 6.721-7.458 6.92-7.7.057-.071.633-.747 1.416-1.665-2.701 1.11-6.76 1.399-9.574 1.452.117-.837.174-1.363.174-1.363s-2.935.085-3.381 1.331c-.498-1.409-.799-5.85 3.736-5.771 4.537.078 12.711-.31 14.273-2.295 0 0-.037.27-.146.701 0 0 2.914 6.511 6.066 7.365 1.559.423 2.641 1.224 3.342 1.96.148.9.307 1.854.467 2.84-1.566 3.472-5.854 13.371-5.172 20.167z"
       id="path27" /><linearGradient
       id="n"
       gradientUnits="userSpaceOnUse"
       x1="326.906"
       y1="151.239"
       x2="322.554"
       y2="92.961"><stop
         offset="0"
         style="stop-color:#f6c295"
         id="stop28" /><stop
         offset="1"
         style="stop-color:#f69c75"
         id="stop29" /></linearGradient><path
       style="fill:url(#n)"
       d="M322.734 106.553c.09.192 3.709 8.035 1.775 13.746-1.957 5.782-9.709 19.766-9.709 19.766a14.39 14.39 0 0 1-1.057 1.153 53.356 53.356 0 0 1-2.666 2.416s1.602-15.835 2.668-24.731c1.068-8.896 3.471-22.238 3.471-22.238 4.092-1.513 17.613-1.779 20.369-.801a1418.09 1418.09 0 0 0 1.057 11.813c.08.825.156 1.63.232 2.391.078.787.227 1.755.43 2.851-5.531-1.271-16.402-6.291-16.57-6.366z"
       id="path29" /><linearGradient
       id="o"
       gradientUnits="userSpaceOnUse"
       x1="356.888"
       y1="205.8"
       x2="351.663"
       y2="135.82"><stop
         offset="0"
         style="stop-color:#f6c295"
         id="stop30" /><stop
         offset="1"
         style="stop-color:#f69c75"
         id="stop31" /></linearGradient><path
       style="fill:url(#o)"
       d="M351.197 144.588c-1.602-2.556-2.848-5.29-2.848-5.29-.029.142-.103.403-.209.76 2.588 4.512 6.217 9.246 8.228 11.293l.254-.512c.001 0-3.823-3.694-5.425-6.251z"
       id="path31" /><linearGradient
       id="p"
       gradientUnits="userSpaceOnUse"
       x1="342.897"
       y1="150.046"
       x2="338.545"
       y2="91.766"><stop
         offset="0"
         style="stop-color:#f6c295"
         id="stop32" /><stop
         offset="1"
         style="stop-color:#f69c75"
         id="stop33" /></linearGradient><path
       style="fill:url(#p)"
       d="m337.586 95.864.02.226c.117 1.371.744 8.726 1.27 13.978.078.785.227 1.755.432 2.853.844.194 1.566.302 2.105.29z"
       id="path33" /><linearGradient
       id="q"
       gradientUnits="userSpaceOnUse"
       x1="370.39"
       y1="69.997"
       x2="342.723"
       y2="148.33"><stop
         offset="0"
         style="stop-color:#1a8dce"
         id="stop34" /><stop
         offset=".995"
         style="stop-color:#0050b5"
         id="stop35" /></linearGradient><path
       style="fill:url(#q)"
       d="M388.48 83.126c-.342 1.117-.887 2.341-1.701 3.683-.99 1.63-2.904 4.156-4.957 6.742-3.736 4.697-9.166 10.483-9.166 10.483 3.291 5.273 5.326 9.177 4.426 13.831-.732 3.789-6.492 9.934-8.094 15.428-1.602 5.494-9.252 33.291-9.252 33.291s0-3.559-.527-6.436c-.529-2.875-1.607-7.778-1.607-7.778-.252-.1-.684-.459-1.23-1.018a34.253 34.253 0 0 1-2.016-2.292 69.208 69.208 0 0 1-2.668-3.505 68.062 68.062 0 0 1-3.547-5.497 43.33 43.33 0 0 1-1.213-2.26c-1.891-3.814-4.238-11.073-5.926-17.488a138.35 138.35 0 0 1-1.162-4.793c-.072-.32-.139-.637-.203-.943a77.229 77.229 0 0 1-.176-.847c-.057-.277-.105-.548-.156-.808a35.44 35.44 0 0 1-.43-2.851c-.076-.761-.152-1.565-.232-2.391a1372.49 1372.49 0 0 1-1.037-11.586c-.012-.149-.02-.227-.02-.227 8.807-.028 20.154 4.007 20.154 4.007s2.441-2.281 3.658-4.715a.065.065 0 0 0 .01-.015c.008-.014.012-.032.02-.046 2.152-4.37 3.076-13.973 3.076-13.973.748-.51 1.477-.997 2.186-1.47 6.166-4.11 10.752-6.797 12.426-7.512.147-.064.287-.124.426-.186a66.218 66.218 0 0 1 3.111-1.249c1.551-.555 1.352-.302 1.352-.302s3.203 3.26 4.166 5.647c.018.035.029.067.043.103.639 1.689 1.194 3.941.266 6.973z"
       id="path35" /><linearGradient
       id="r"
       gradientUnits="userSpaceOnUse"
       x1="357.74"
       y1="85.109"
       x2="388.481"
       y2="85.109"><stop
         offset="0"
         style="stop-color:#1a8dce"
         id="stop36" /><stop
         offset=".995"
         style="stop-color:#0050b5"
         id="stop37" /></linearGradient><path
       style="opacity:.4;fill:url(#r)"
       d="M388.48 83.126c-.342 1.117-.887 2.341-1.701 3.683-.99 1.63-2.904 4.156-4.957 6.742-8.279 1.993-18.623 2.37-18.623 2.37-2.143 2.455-5.459 3.95-5.459 3.95s2.441-2.281 3.658-4.715a.065.065 0 0 0 .01-.015c.008-.014.012-.032.02-.046 2.152-4.37 3.076-13.973 3.076-13.973.748-.51 1.477-.997 2.186-1.47 6.166-4.11 10.752-6.797 12.426-7.512.147-.064.287-.124.426-.186a66.218 66.218 0 0 1 3.111-1.249c1.551-.555 1.352-.302 1.352-.302s3.203 3.26 4.166 5.647c-.604.011-1.398.11-2.277.281 1.49 3.228-2.914 8.302-2.914 8.302 1.495.543 4.063-.695 5.5-1.507z"
       id="path37" /><linearGradient
       id="s"
       gradientUnits="userSpaceOnUse"
       x1="362.796"
       y1="75.648"
       x2="343.974"
       y2="80.766"><stop
         offset="0"
         style="stop-color:#e8d9d0"
         id="stop38" /><stop
         offset=".995"
         style="stop-color:#d6c9c4"
         id="stop39" /></linearGradient><path
       style="fill:url(#s)"
       d="M381.818 91.089c-.801.246-1.625.48-2.461.704-11.135 2.976-24.863 3.896-28.338 2.737-3.736-1.246-14.232-11.653-16.99-17.652-2.307-5.018-1.5-11.031.902-13.618.475-.505 1.004-.879 1.588-1.088 8.094-2.915 12.084 9.539 14.233 13.983 3.291 6.811 5.248 8.411 12.447 9.746 2.781.516 6.076.771 9.076.893 2.537.104 4.865.11 6.484.093 1.426-.018 2.305-.05 2.305-.05z"
       id="path39" /><linearGradient
       id="t"
       gradientUnits="userSpaceOnUse"
       x1="358.394"
       y1="45.823"
       x2="356.417"
       y2="19.353"><stop
         offset="0"
         style="stop-color:#383f44"
         id="stop40" /><stop
         offset="1"
         style="stop-color:#2d383f"
         id="stop41" /></linearGradient><path
       style="fill:url(#t)"
       d="M354.992 34.49a8.854 8.854 0 0 0-2.648-.748c4.721 2.855 9.666 6.592 10.855 7.501-.002-.003-2.961-4.382-8.207-6.753z"
       id="path41" /><linearGradient
       id="u"
       gradientUnits="userSpaceOnUse"
       x1="382.909"
       y1="73.565"
       x2="382.152"
       y2="63.428"><stop
         offset="0"
         style="stop-color:#f6c295"
         id="stop42" /><stop
         offset="1"
         style="stop-color:#f69c75"
         id="stop43" /></linearGradient><path
       style="fill:url(#u)"
       d="m386.273 64.445-3.58 6.326s-.492.074-1.123.327a34.477 34.477 0 0 0-2.797 1.246l-.25-4.483-.184-3.292c2.69.705 5.69.719 7.934-.124z"
       id="path43" /><linearGradient
       id="v"
       gradientUnits="userSpaceOnUse"
       x1="383.267"
       y1="73.532"
       x2="382.51"
       y2="63.403"><stop
         offset="0"
         style="stop-color:#f6c295"
         id="stop44" /><stop
         offset="1"
         style="stop-color:#f69c75"
         id="stop45" /></linearGradient><path
       style="fill:url(#v)"
       d="m378.328 64.379.012.191c2.691.705 5.69.72 7.934-.124l.506-.894z"
       id="path45" /><linearGradient
       id="w"
       gradientUnits="userSpaceOnUse"
       x1="383.898"
       y1="70.077"
       x2="383.987"
       y2="46.059"><stop
         offset="0"
         style="stop-color:#f6c295"
         id="stop46" /><stop
         offset="1"
         style="stop-color:#f69c75"
         id="stop47" /></linearGradient><path
       style="fill:url(#w)"
       d="M395.053 58.852c-.83.463-1.438.58-1.873.544-.729-.057-.975-.544-.975-.544s-.801 2.053-4.27 4.7a6.425 6.425 0 0 1-1.662.893c-2.244.843-5.244.829-7.934.124-1.926-.505-3.691-1.358-4.904-2.512a9.954 9.954 0 0 1-.502-.506c-2.881-3.081-2.867-6.511-1.545-8.539.441-.68.897-1.712 1.268-2.647.455-1.164.779-2.178.779-2.178 9.074-.438 14.5-6.053 14.5-6.053s.043.186.129.51c.422 1.558 1.896 6.287 4.768 8.351.49.353 1.023.63 1.603.797l-.807 3.864s.889-2.135 2.758-1.615c.582.16.885.569.963 1.092.176 1.153-.767 2.864-2.296 3.719z"
       id="path47" /><linearGradient
       id="x"
       gradientUnits="userSpaceOnUse"
       x1="330.324"
       y1="58.967"
       x2="384.006"
       y2="58.967"><stop
         offset="0"
         style="stop-color:#e8d9d0"
         id="stop48" /><stop
         offset=".995"
         style="stop-color:#d6c9c4"
         id="stop49" /></linearGradient><path
       style="fill:url(#x)"
       d="m350.484 63.734 1.25-7.163-.002-.002c-.121.007-.242.01-.357.002-.992-.071-2.678-1.102-4.322-2.371-.978.068-1.961.213-2.965.456.053.212.09.397.109.545 0 0 4.508 4.692 6.287 8.533z"
       id="path49" /><path
       style="fill:#e2e0d7"
       d="m355.467 61.14-2.139-1.295-2.701 3.081a55.14 55.14 0 0 1 .783-4.921c.848-4.022 1.748-5.185 1.896-5.356a.14.14 0 0 1 .022-.024l.008.024 1.352 5.395z"
       id="path50" /><linearGradient
       id="y"
       gradientUnits="userSpaceOnUse"
       x1="351.41"
       y1="55.347"
       x2="354.772"
       y2="55.347"><stop
         offset="0"
         style="stop-color:#e8d9d0"
         id="stop50" /><stop
         offset=".995"
         style="stop-color:#d6c9c4"
         id="stop51" /></linearGradient><path
       style="opacity:.4;fill:url(#y)"
       d="M354.687 58.044c-1.021-.292-2.416-.178-3.277-.039.848-4.022 1.748-5.185 1.896-5.356h.029z"
       id="path51" /><linearGradient
       id="z"
       gradientUnits="userSpaceOnUse"
       x1="348.184"
       y1="68.088"
       x2="346.112"
       y2="40.35"><stop
         offset="0"
         style="stop-color:#f6c295"
         id="stop52" /><stop
         offset="1"
         style="stop-color:#f69c75"
         id="stop53" /></linearGradient><path
       style="fill:url(#z)"
       d="m351.734 56.571-.52 2.978-.73 4.185c-.654-1.409-1.678-2.939-2.711-4.306-1.775-2.352-3.576-4.227-3.576-4.227a6.056 6.056 0 0 0-.109-.545c-.406-1.679-1.676-5.063-1.701-5.135.09.153.178.303.27.442.666.999 2.506 2.774 4.395 4.237 1.645 1.271 3.332 2.299 4.324 2.37.117.007.234.007.355 0h.003z"
       id="path53" /><linearGradient
       id="A"
       gradientUnits="userSpaceOnUse"
       x1="348.077"
       y1="66.678"
       x2="346.708"
       y2="48.35"><stop
         offset="0"
         style="stop-color:#f6c295"
         id="stop54" /><stop
         offset="1"
         style="stop-color:#f69c75"
         id="stop55" /></linearGradient><path
       style="fill:url(#A)"
       d="M342.385 49.521c.09.155.18.304.271.442 1.246 1.867 6.584 6.454 8.719 6.607.115.008.236.005.357-.002l-9.348-7.051v.004z"
       id="path55" /><linearGradient
       id="B"
       gradientUnits="userSpaceOnUse"
       x1="346.122"
       y1="57.321"
       x2="351.104"
       y2="32.769"><stop
         offset="0"
         style="stop-color:#f6c295"
         id="stop56" /><stop
         offset="1"
         style="stop-color:#f69c75"
         id="stop57" /></linearGradient><path
       style="fill:url(#B)"
       d="M363.199 41.242v.003s-.025.107-.076.299c-.301 1.186-1.547 5.654-3.92 8.903-1.602 2.195-3.264 3.953-4.793 5.014-.961.669-1.867 1.061-2.68 1.11a3.003 3.003 0 0 1-.355 0c-2.135-.153-7.473-4.74-8.719-6.607a10.54 10.54 0 0 1-.27-.442c-1.113-1.936-1.953-4.981-1.953-4.981a.511.511 0 0 1-.111.004c-3.152.16-5.734-4.565-3.715-6.323a3.69 3.69 0 0 1 .299-.234c.787-.555 1.455-.509 1.969-.267 1.437.953 1.824 4.415 1.824 4.415l.951 2.225c-.121-.651-.797-4.26 3.824-7.732 3.256-2.451 5.826-2.786 7.057-2.771-.064-.036-.125-.075-.189-.114.873.1 1.758.346 2.652.747 5.244 2.371 8.205 6.751 8.205 6.751z"
       id="path57" /><path
       style="fill:#633822"
       d="M353.281 33.919a4.852 4.852 0 0 0-.75-.063c-.662-.008-1.705.085-3.035.551-1.15.403-2.512 1.082-4.022 2.221-4.621 3.473-3.945 7.081-3.824 7.732l-.951-2.225s-.096-.864-.373-1.85c-.277-.986-.732-2.089-1.451-2.565 0 0-.42-2.225-.19-4.423.043-.392.104-.779.19-1.153 0 0 4.967-.416 8.646.413 3.362.76 5.434 1.277 5.76 1.362z"
       id="path58" /><path
       style="fill:#fff"
       d="M348.824 48.096s2.195 1.896 7.117 1.423c0 0-1.832 2.787-4.207 2.668-2.375-.119-2.91-4.091-2.91-4.091z"
       id="path59" /><path
       style="fill:#49312a"
       d="M385.119 49.519s3.092-1.638 6.186 0c0 0-.898-1.874-3.094-2.017-2.193-.142-3.092 2.017-3.092 2.017z"
       id="path60" /><path
       style="fill:#d47356"
       d="M315.814 148.91v.004a5.24 5.24 0 0 1-.289.412c.178-.711-1.156-3.903-1.156-3.903s-.01.047-.039.136c-.186.619-1.07 3.22-3.252 5.014-2.49 2.046-6.494 1.956-6.494 1.956 4.182-2.224 6.494-8.895 6.494-8.895.836-1.136 2.23-2.355 3.053-3.035.402-.331.67-.534.67-.534s1.881.456 2.326 3.569c.338 2.366-.766 4.427-1.313 5.276z"
       id="path61" /><path
       style="opacity:.5;fill:#d1d1d1"
       d="M381.818 91.089c-.801.246-1.625.48-2.461.704-1.35-1.451-.912-3.82-.598-4.906 1.426-.018 2.305-.05 2.305-.05z"
       id="path62" /><linearGradient
       id="C"
       gradientUnits="userSpaceOnUse"
       x1="364.905"
       y1="84.362"
       x2="370.086"
       y2="91.331"
       gradientTransform="matrix(-1 0 0 1 751.156 0)"><stop
         offset="0"
         style="stop-color:#f4c599"
         id="stop62" /><stop
         offset="1"
         style="stop-color:#f5a17a"
         id="stop63" /></linearGradient><path
       style="fill:url(#C)"
       d="M379.488 88.904c.199.85 1.145 1.811 2.412 2.265.365.132.758.222 1.164.254 1.771.141 3.912-1.263 3.795-1.796-.002-.017-.01-.032-.016-.047-.09-.166-.59-.045-1.117.142.039-.019.08-.039.117-.06l.004-.001c.883-.47 1.539-1.003 1.441-1.268a.083.083 0 0 0-.018-.03c-.25-.315-2.377.429-2.488.467l.031-.019.002-.004c1.297-.789 2.234-1.605 2.145-2.027-.004-.023-.014-.044-.021-.064-.006-.01-.016-.021-.023-.029-.297-.294-2.301.679-2.518.785l.086-.05c1.279-.733 2.555-1.884 2.449-2.274a.09.09 0 0 0-.049-.055c-.406-.209-3.104.883-3.893 1.294-.57.298-1.393.746-1.656.684-.125-.029-.123-.172.086-.501.645-1.002.723-1.912.387-1.934h-.022c-.721.029-1.986 2.166-2.268 3.529-.059.29-.075.548-.03.739z"
       id="path63" /><path
       style="opacity:.2;fill:#ea7e57"
       d="M381.336 87.07c-.125-.029-.123-.172.086-.501.645-1.002.723-1.912.387-1.934-.18.724-.57 2.023-.887 2.441-.231.304.039.216.414-.006zm2.178.722c.168-.008.533-.159.971-.37 1.279-.733 2.555-1.884 2.449-2.274a.09.09 0 0 0-.049-.055c-.514.52-1.59 1.449-2.33 1.842-.895.474-1.442.876-1.041.857zm-.018 1.332c.121.061.584-.022 1.318-.313l.002-.004c1.367-.831 2.334-1.693 2.123-2.092-.006-.01-.016-.021-.023-.029a11.45 11.45 0 0 1-1.941 1.452c-.95.548-1.661.894-1.479.986zm.869 1.167c.233-.08.822-.336 1.479-.629l.004-.001c.883-.47 1.539-1.003 1.441-1.268a.083.083 0 0 0-.018-.03c-.451.333-1.244.879-2.115 1.252-1.021.439-1.156.803-.791.676zm-2.465.878c.365.132.758.222 1.164.254 1.771.141 3.912-1.263 3.795-1.796-.518.404-1.547.935-2.416 1.212-.963.307-1.97.349-2.543.33z"
       id="path64" /><path
       style="opacity:.1;fill:#ea7e57"
       d="M379.488 88.904c.199.85 1.145 1.811 2.412 2.265.365.132.758.222 1.164.254 1.771.141 3.912-1.263 3.795-1.796-.002-.017-.01-.032-.016-.047-.09-.166-.59-.045-1.117.142.039-.019.08-.039.117-.06l.004-.001c.883-.47 1.539-1.003 1.441-1.268a.083.083 0 0 0-.018-.03c-.25-.315-2.377.429-2.488.467l.031-.019.002-.004c1.297-.789 2.234-1.605 2.145-2.027-.117.064-.242.13-.369.198-3.703 1.983-6.227 1.784-7.072 1.187-.06.29-.076.548-.031.739z"
       id="path65" /><path
       style="fill:#d77140"
       d="M337.721 38.888s1.871 1.914 2 3.781c0 0-1.199.225-1.6-.532-.4-.758.31-1.343.31-1.343zm58.308 16.279s-1.69.634-2.623 2.607c0 0 .49.339 1.313 0 .822-.339 0-1.146 0-1.146z"
       id="path66" /><path
       style="opacity:.3;fill:#e77653"
       d="M363.199 41.242v.003s-.025.107-.076.299c-4.65-3.205-13.139-6.337-17.648-4.053-5.055 2.566-3.309 8.913-2.283 10.604 1.023 1.689 5.117 7.073 7.871 7.515.875.142 2.096.046 3.348-.15-.961.669-1.867 1.061-2.68 1.11a3.003 3.003 0 0 1-.355 0c-2.135-.153-7.473-4.74-8.719-6.607a10.54 10.54 0 0 1-.27-.442c-1.113-1.936-1.953-4.981-1.953-4.981a.511.511 0 0 1-.111.004 40.505 40.505 0 0 1-.039-1.52c-.01-2.174-2.443-4.349-3.377-5.038.787-.555 1.455-.509 1.969-.267 1.437.953 1.824 4.415 1.824 4.415l.951 2.225c-.121-.651-.797-4.26 3.824-7.732 3.256-2.451 5.826-2.786 7.057-2.771-.064-.036-.125-.075-.189-.114.873.1 1.758.346 2.652.747 5.243 2.373 8.204 6.753 8.204 6.753z"
       id="path67" /><path
       style="fill:#542a18"
       d="M350.791 37.492s-2.885-2.177-6.088-1.584c0 0 1.826-1.5 3.691-1.502 2.397-.001 2.397 3.086 2.397 3.086z"
       id="path68" /><path
       style="opacity:.4;fill:#e77653"
       d="m351.734 56.571-.52 2.978a7.124 7.124 0 0 0-3.441-.121c-1.775-2.352-3.576-4.227-3.576-4.227a6.056 6.056 0 0 0-.109-.545c-.406-1.679-1.676-5.063-1.701-5.135.09.153.178.303.27.442.666.999 2.506 2.774 4.395 4.237 1.645 1.271 3.332 2.299 4.324 2.37.117.007.234.007.355 0h.003z"
       id="path69" /><path
       style="opacity:.3;fill:#e77653"
       d="M388.064 42.645a2.08 2.08 0 0 1-.457.886s-4.432 6.177-14.951 6.835c.455-1.164.779-2.178.779-2.178 9.074-.438 14.5-6.053 14.5-6.053s.043.185.129.51z"
       id="path70" /><path
       style="fill:#49312a"
       d="M378.832 48.777s-2.787-2.008-5.397-.974c0 0 .533-1.755 2.699-1.577 2.165.178 2.698 2.551 2.698 2.551z"
       id="path71" /><path
       style="opacity:.3;fill:#e77653"
       d="m386.273 64.445-3.58 6.326s-.477.118-1.123.327c.082-1.693-1.395-3.088-3.047-3.237l-.184-3.292c2.69.705 5.69.719 7.934-.124z"
       id="path72" /><linearGradient
       id="D"
       gradientUnits="userSpaceOnUse"
       x1="313.744"
       y1="121.654"
       x2="339.305"
       y2="121.654"><stop
         offset="0"
         style="stop-color:#f6c295"
         id="stop72" /><stop
         offset="1"
         style="stop-color:#f69c75"
         id="stop73" /></linearGradient><path
       style="opacity:.4;fill:url(#D)"
       d="M322.734 106.553c.09.192 3.709 8.035 1.775 13.746-1.957 5.782-9.709 19.766-9.709 19.766a14.39 14.39 0 0 1-1.057 1.153c1.768-4.821 5.67-15.561 7.029-19.912 1.779-5.693-1.156-19.215-1.156-19.215 4.893 2.847 19.025 5.587 19.025 5.587.08.825.156 1.63.232 2.391.078.787.227 1.755.43 2.851-5.53-1.272-16.401-6.292-16.569-6.367z"
       id="path73" /><path
       style="fill:#2e2b29"
       d="M289.463 197.719c-6.316-1.513-11.031-8.185-11.031-8.185l1.049-1.434 1.68-2.303 1.281.915c1.949 1.971 5.857 8.91 6.807 10.621.138.246.214.386.214.386z"
       id="path74" /><path
       style="opacity:.4;fill:#2e2b29"
       d="M289.463 197.719c-6.316-1.513-11.031-8.185-11.031-8.185l1.049-1.434c1.363 2.02 5.285 7.352 9.767 9.233.139.246.215.386.215.386z"
       id="path75" /><path
       style="fill:#2e2b29"
       d="M395.23 197.719c-5.516 2.312-14.254-1.004-14.254-1.004l.197-.85.445-1.882.358.053c6.029-2.288 10.639 1.135 12.435 2.829.534.504.819.854.819.854z"
       id="path76" /><path
       style="opacity:.4;fill:#2e2b29"
       d="M395.23 197.719c-5.516 2.312-14.254-1.004-14.254-1.004l.197-.85c2.008.52 7.91 1.836 13.238 1 .534.504.819.854.819.854z"
       id="path77" /><path
       style="opacity:.3;fill:#3d271a"
       d="M353.281 33.919a4.852 4.852 0 0 0-.75-.063c-.662-.008-1.705.085-3.035.551-4.246-.921-6.465-2.01-10.811-1.109.043-.392.104-.779.19-1.153 0 0 4.967-.416 8.646.413 3.362.759 5.434 1.276 5.76 1.361z"
       id="path78" /><linearGradient
       id="E"
       gradientUnits="userSpaceOnUse"
       x1="345.996"
       y1="36.719"
       x2="345.045"
       y2="23.983"><stop
         offset="0"
         style="stop-color:#383f44"
         id="stop78" /><stop
         offset="1"
         style="stop-color:#2d383f"
         id="stop79" /></linearGradient><path
       style="fill:url(#E)"
       d="M354.393 34.172c-.277-.064-9.953-2.381-15.518-2.028l-2.326-6.939s1.914.249 4.23.911c1.586.452 3.365 1.1 4.838 1.992 2.986 1.812 7.018 4.757 8.34 5.736.25.185.404.302.436.328z"
       id="path79" /><linearGradient
       id="F"
       gradientUnits="userSpaceOnUse"
       x1="349.785"
       y1="27.297"
       x2="343.52"
       y2="30.77"><stop
         offset="0"
         style="stop-color:#383f44"
         id="stop80" /><stop
         offset="1"
         style="stop-color:#2d383f"
         id="stop81" /></linearGradient><path
       style="opacity:.2;fill:url(#F)"
       d="M354.393 34.172c-.277-.064-9.953-2.381-15.518-2.028l-2.326-6.939s1.914.249 4.23.911c2.953 2.217 8.51 6.099 13.178 7.729.25.184.404.301.436.327z"
       id="path81" /><path
       style="fill:#e2e0d7"
       d="m350.484 63.733-3.426-2.907-2.801 1.346-1.832-4.708-1.014-2.612 2.07-2.223s1.281 2.066 2.754 4.426c1.767 2.836 3.812 6.088 4.249 6.678z"
       id="path82" /><linearGradient
       id="G"
       gradientUnits="userSpaceOnUse"
       x1="341.412"
       y1="55.046"
       x2="346.365"
       y2="55.046"><stop
         offset="0"
         style="stop-color:#e8d9d0"
         id="stop82" /><stop
         offset=".995"
         style="stop-color:#d6c9c4"
         id="stop83" /></linearGradient><path
       style="opacity:.4;fill:url(#G)"
       d="M346.24 57.065c-.07-.114-2.146.156-3.814.399l-1.014-2.612 2.07-2.223s1.281 2.066 2.754 4.426z"
       id="path83" /><path
       style="opacity:.3;fill:#d1d1d1"
       d="M381.818 91.089c-.801.246-1.625.48-2.461.704-11.135 2.976-24.863 3.896-28.338 2.737-3.736-1.246-14.232-11.653-16.99-17.652-2.307-5.018-1.5-11.031.902-13.618-.105 2.608.922 7.64 2.104 10.871 1.412 3.854 9.715 12.45 11.789 14.317 2.076 1.872 6.271 3.15 7.664 3.537.836.235 9.236-2.765 15.787-5.191 2.537.104 4.865.11 6.484.093 1.426-.018 2.305-.05 2.305-.05z"
       id="path84" /><linearGradient
       id="H"
       gradientUnits="userSpaceOnUse"
       x1="383.448"
       y1="86.405"
       x2="327.94"
       y2="71.283"><stop
         offset="0"
         style="stop-color:#f6c295"
         id="stop84" /><stop
         offset="1"
         style="stop-color:#f69c75"
         id="stop85" /></linearGradient><path
       style="fill:url(#H)"
       d="M374.326 87.304c-12.365 6.337-14.412 5.358-15.658 5.358-1.244 0-12.943-7.917-17.969-16.102 0 0-4.33-.594-4.564-1.366-.004-.011-.006-.021-.012-.031-.141-.772 3.32-.071 3.758.021l.039.011h.008s-4.049-2.273-3.846-3.042a.2.2 0 0 1 .018-.046c.291-.53 2.523.811 3.494 1.43.004.004.008.007.01.007.211.132.359.231.42.271-.326-.335-3.615-3.626-2.881-4.253.018-.014.035-.028.053-.039.727-.384 2.9 2.221 3.807 3.37.197.245.336.427.389.494-.242-.396-2.551-4.159-1.58-4.415h.006c1.025-.253 2.566 4.668 2.566 4.668s0-.018.004-.047c.031-.391.285-3.116.857-2.964.004-.003.004 0 .008 0 .623.196.65 4.687.65 4.687s12.938 7.821 16.012 9.43c1.869.979 13.254-8.213 15.301-9.967 2.045-1.751 6.604-3.604 8.789 0 .018.028.035.061.053.089 1.333 2.252 2.469 6.187-9.732 12.436z"
       id="path85" /><linearGradient
       id="I"
       gradientUnits="userSpaceOnUse"
       x1="336.123"
       y1="83.792"
       x2="384.849"
       y2="83.792"><stop
         offset="0"
         style="stop-color:#f6c295"
         id="stop86" /><stop
         offset="1"
         style="stop-color:#f69c75"
         id="stop87" /></linearGradient><path
       style="opacity:.4;fill:url(#I)"
       d="M374.326 87.304c-12.365 6.337-14.412 5.358-15.658 5.358-1.244 0-12.943-7.917-17.969-16.102 0 0-4.33-.594-4.564-1.366-.004-.011-.006-.021-.012-.031 1.574-.058 5.289 1.28 5.289 1.28 7.412 8.192 19.051 14.706 19.051 14.706 9.803-2.583 21.492-12.82 23.594-16.282 1.334 2.253 2.47 6.188-9.731 12.437z"
       id="path87" /><path
       style="opacity:.3;fill:#e77653"
       d="M340.283 75.315a6.783 6.783 0 0 1-.363-.121h.008s-4.049-2.273-3.846-3.042c.914.609 4.771 3.324 4.201 3.163zm-.68-1.772c.211.132.359.231.42.271-.326-.335-3.615-3.626-2.881-4.253.018-.014.035-.028.053-.039.9 1.363 3.166 4.487 3.565 4.932.267.303-.299-.184-1.157-.911zm1.399-.65c.197.245.336.427.389.494-.242-.396-2.551-4.159-1.58-4.415h.006c.4 1.128 1.635 4.59 1.979 5.159-.001 0-.349-.548-.794-1.238zm1.922 2.301c.057.42-.268-.52-.537-1.602.031-.391.285-3.116.857-2.964-.131 1.297-.389 4.064-.32 4.566z"
       id="path88" /><linearGradient
       id="J"
       gradientUnits="userSpaceOnUse"
       x1="338.643"
       y1="135.309"
       x2="377.296"
       y2="135.309"><stop
         offset="0"
         style="stop-color:#1a8dce"
         id="stop88" /><stop
         offset=".995"
         style="stop-color:#0050b5"
         id="stop89" /></linearGradient><path
       style="opacity:.4;fill:url(#J)"
       d="M377.082 117.865c-.732 3.789-6.492 9.934-8.094 15.428-1.602 5.494-9.252 33.291-9.252 33.291s0-3.559-.527-6.436c-.529-2.875-1.607-7.778-1.607-7.778-.252-.1-.684-.459-1.23-1.018a34.253 34.253 0 0 1-2.016-2.292 69.208 69.208 0 0 1-2.668-3.505 68.062 68.062 0 0 1-3.547-5.497 43.33 43.33 0 0 1-1.213-2.26c-1.891-3.814-4.238-11.073-5.926-17.488a138.35 138.35 0 0 1-1.162-4.793c-.072-.32-.139-.637-.203-.943a77.229 77.229 0 0 1-.176-.847c-.057-.277-.105-.548-.156-.808a35.44 35.44 0 0 1-.43-2.851c-.076-.761-.152-1.565-.232-2.391 5.377 1.736 17.734 6.984 27.449 6.497 0 0-2.625.883-6.355 1.982-2.826 2.804-6.238 9.855-5.516 16.396a54.217 54.217 0 0 0 1.16 6.586c2.121-2.925 4.939-5.851 9.248-9.618 8.746-7.65 10.68-13.373 9.518-18.683-.936-4.29-1.49-6.805-1.49-6.805 3.29 5.276 5.325 9.179 4.425 13.833z"
       id="path89" /><linearGradient
       id="K"
       gradientUnits="userSpaceOnUse"
       x1="314.131"
       y1="144.487"
       x2="317.19"
       y2="144.487"><stop
         offset="0"
         style="stop-color:#383f44"
         id="stop90" /><stop
         offset="1"
         style="stop-color:#2d383f"
         id="stop91" /></linearGradient><path
       style="opacity:.3;fill:url(#K)"
       d="M315.814 148.91c.195-3.07-.635-6.583-1.684-8.312.402-.331.67-.534.67-.534s1.881.456 2.326 3.569c.339 2.367-.765 4.428-1.312 5.277z"
       id="path91" /><linearGradient
       id="L"
       gradientUnits="userSpaceOnUse"
       x1="304.584"
       y1="148.615"
       x2="314.33"
       y2="148.615"><stop
         offset="0"
         style="stop-color:#383f44"
         id="stop92" /><stop
         offset="1"
         style="stop-color:#2d383f"
         id="stop93" /></linearGradient><path
       style="opacity:.3;fill:url(#L)"
       d="M314.33 145.559c-.186.619-1.07 3.22-3.252 5.014-2.49 2.046-6.494 1.956-6.494 1.956s5.967-.921 9.16-7.827c0-.001.319.279.586.857z"
       id="path93" /><path
       style="opacity:.2;fill:#e57f5f"
       d="M383.953 53.047s.396-2.629 3.537-3.232c3.141-.604 2.402 4.15 2.402 4.15s-3.519.387-5.939-.918z"
       id="path94" /><path
       style="fill:#fff"
       d="M383.953 53.047s.734-2.15 3.404-1.615c2.668.533 2.535 2.534 2.535 2.534s-3.83 1.097-5.939-.919z"
       id="path95" /><path
       style="fill:#41667f"
       d="M387.49 52.649c0 .804-.59 1.455-1.32 1.455-.729 0-1.32-.651-1.32-1.455 0-.803.592-1.454 1.32-1.454.73 0 1.32.652 1.32 1.454z"
       id="path96" /><path
       style="fill:#72594e"
       d="M383.953 53.047s.109-1.808 2.971-2.15c2.969-.354 2.969 3.069 2.969 3.069s-.879-1.53-2.49-2.067c-2.118-.704-3.45 1.148-3.45 1.148z"
       id="path97" /><path
       style="opacity:.2;fill:#e57f5f"
       d="M373.791 50.764s-.346-2.58 2.021-2.668c2.369-.09 2.805 3.276 2.527 4.529.001 0-3.392-.646-4.548-1.861z"
       id="path98" /><path
       style="fill:#fff"
       d="M373.791 50.764s.045-1.468 1.691-1.602c1.645-.133 2.645 2.477 2.857 3.463.001 0-3.079.273-4.548-1.861z"
       id="path99" /><path
       style="fill:#41667f"
       d="M377.127 50.736c0 .804-.588 1.455-1.315 1.455-.725 0-1.312-.651-1.312-1.455 0-.803.588-1.454 1.312-1.454.727 0 1.315.652 1.315 1.454z"
       id="path100" /><path
       style="fill:#72594e"
       d="M378.34 52.625s.434-1.862-1.035-3.106c-1.467-1.246-3.647-.712-3.514 1.245 0 0 .756-1.558 1.957-1.245 1.201.311 2.592 3.106 2.592 3.106z"
       id="path101" /><path
       style="fill:#b54040"
       d="M380.557 60.023c-2.064 0-3.318-.32-3.723-.952-.17-.265-.133-.513-.09-.605a.178.178 0 0 1 .236-.088c.086.04.125.143.088.23-.002.014-.033.138.084.298.205.285.922.761 3.406.761h.037c3.584-.007 4.221-.473 4.33-.615.02-.023.022-.037.022-.039a.178.178 0 1 1 .344-.09.398.398 0 0 1-.082.346c-.477.617-2.772.751-4.611.755l-.041-.001z"
       id="path102" /><g
       style="opacity:.8"
       id="g103"><path
         style="fill:#e77653"
         d="M380.73 57.229a.118.118 0 0 1-.027-.003 88 88 0 0 1-2.322-.551.132.132 0 0 1-.09-.077.124.124 0 0 1 .006-.118l3.029-5.352a.134.134 0 0 1 .233.132l-2.943 5.198c.453.112 1.68.412 2.141.506a.134.134 0 0 1-.027.265z"
         id="path103" /></g><path
       style="fill:#fff"
       d="M345.471 40.979s.48-1.279 2.592-1.552c2.111-.271 3.357.23 3.846 2.025 0 0-1.322.371-3.219.282-1.897-.088-3.219-.755-3.219-.755zm11.507 1.156s1.701-2.174 3.779-1.778c2.078.395 1.381 1.778 1.381 1.778s-1.068 1.556-5.16 0z"
       id="path104" /><path
       style="fill:#51341c"
       d="M351.209 40.308a1.407 1.407 0 1 1-2.814.002 1.407 1.407 0 0 1 2.814-.002zm10.529 1.149a1.312 1.312 0 1 1-2.625 0 1.312 1.312 0 0 1 2.625 0z"
       id="path105" /><path
       style="fill:#66584c"
       d="M345.471 40.979s.648-1.965 3.354-2.446c3.063-.545 3.084 2.92 3.084 2.92s-.756-2.075-2.803-1.896c-2.046.176-3.635 1.422-3.635 1.422zm11.507 1.156s.846-2.101 3.195-2.34c2.35-.239 2.078 1.954 2.078 1.954s-.158-1.095-1.983-.955c-1.821.141-3.29 1.341-3.29 1.341z"
       id="path106" /><g
       style="opacity:.8"
       id="g107"><path
         style="fill:#e77653"
         d="M355.156 47.629a.132.132 0 0 1-.039-.006c-.047-.014-1.199-.353-1.754-.998a.133.133 0 0 1 .016-.188.133.133 0 0 1 .188.014c.41.479 1.23.785 1.522.883.27-.727.297-4.383.246-6.777a.134.134 0 0 1 .131-.137c.08.006.133.057.137.131.012.648.119 6.359-.336 7.021a.14.14 0 0 1-.111.057z"
         id="path107" /></g><path
       style="fill:#542a18"
       d="M357.424 38.9s2.195-.701 5.338 0c0 0-3.647-4.129-5.338 0z"
       id="path108" /><g
       style="opacity:.4"
       id="g111"><path
         style="fill:#af5c01"
         d="M390.291 36.268c-.76 1.537-2.131 2.765-3.529 3.758-2.152 1.526-4.629 2.607-7.102 3.494-2.961 1.06-6.289 1.871-8.605 4.142-.463.452-.854.94-1.18 1.455a5.166 5.166 0 0 1-.154-.435c.156-.227.328-.451.512-.668 1.588-1.868 3.912-2.936 6.17-3.733 3.061-1.078 6.174-2.078 8.965-3.771 1.775-1.082 3.717-2.516 4.635-4.444.099.066.196.134.288.202zm-1.606-.972a12.086 12.086 0 0 1-1.928 2.096c-1.853 1.577-4.018 2.445-6.357 3.032-1.605.398-3.229.736-4.815 1.202-1.406.413-2.805.854-3.961 1.786a10.4 10.4 0 0 0-2.363 2.686c-.004-.042-.004-.089-.006-.132a4.579 4.579 0 0 1 .006-.548 9.728 9.728 0 0 1 1.338-1.583c1.982-1.89 4.559-2.52 7.156-3.142 2.781-.668 5.685-1.213 8.027-2.974a13.163 13.163 0 0 0 2.563-2.587c.114.051.227.107.34.164z"
         id="path109" /><path
         style="fill:#af5c01"
         d="M387.189 34.685c-1.254 2.465-3.51 4.348-6.475 3.889-1.262-.195-2.451-.754-3.721-.903a8.544 8.544 0 0 0-3.227.228c.238-.188.49-.37.75-.552a7.88 7.88 0 0 1 3.272.11c1.314.334 2.707.925 4.086.861 1.256-.058 2.455-.658 3.352-1.534a8.666 8.666 0 0 0 1.631-2.202c.112.03.221.063.332.103zm10.241 17.41c-2.357-1.334-4.596-2.918-6.133-5.096-1.131-1.604-1.738-3.409-1.682-5.384.043-1.362.291-2.726.754-4.01.117-.327.264-.645.42-.961.086.064.168.136.254.203 0 .003-.004.003-.004.007-.541 1.324-.955 2.736-1.041 4.17-.135 2.246.414 4.316 1.83 6.089 1.502 1.879 3.447 3.295 5.521 4.508.026.156.051.314.081.474z"
         id="path110" /><path
         style="fill:#af5c01"
         d="M396.689 47.715a11.1 11.1 0 0 1-2.943-2.694c-.906-1.21-1.619-2.611-1.828-4.124-.15-1.057.031-2.007.279-2.96.094.1.185.199.275.299v.003c-.229.911-.371 1.833-.168 2.829a9.022 9.022 0 0 0 1.857 3.911 11.885 11.885 0 0 0 2.449 2.234c.023.16.05.327.079.502z"
         id="path111" /></g><path
       style="opacity:.3;fill:#e77653"
       d="M397.35 55.133c-1.893.595-3.434 2.904-4.17 4.263-.729-.057-.975-.544-.975-.544s-.801 2.053-4.27 4.7a6.425 6.425 0 0 1-1.662.893c-2.244.843-5.244.829-7.934.124-1.926-.505-3.691-1.358-4.904-2.512a9.954 9.954 0 0 1-.502-.506c3.707 2.459 9.49 3.185 13.236 1.374 4.35-2.103 6.342-7.942 6.662-11.931.49.353 1.023.63 1.603.797l-.807 3.864s.889-2.135 2.758-1.615c.584.161.886.57.965 1.093z"
       id="path112" /><path
       style="fill:#d47356"
       d="m330.521 201.806-.002.003a4.419 4.419 0 0 1-.357.232c.383-.506.551-3.472.551-3.472s-.023.033-.076.094c-.355.431-1.928 2.201-4.156 2.908-2.541.806-5.422-.576-5.422-.576 3.834-.394 7.898-4.923 7.898-4.923 1.014-.626 2.463-1.136 3.305-1.405.41-.131.676-.204.676-.204s1.207.979.42 3.591c-.598 1.986-2.135 3.257-2.837 3.752z"
       id="path113" /><linearGradient
       id="M"
       gradientUnits="userSpaceOnUse"
       x1="310.72"
       y1="342.355"
       x2="313.402"
       y2="342.355"
       gradientTransform="matrix(.8295 .3734 -.4067 .9034 212.368 -227.557)"><stop
         offset="0"
         style="stop-color:#383f44"
         id="stop113" /><stop
         offset="1"
         style="stop-color:#2d383f"
         id="stop114" /></linearGradient><path
       style="opacity:.3;fill:url(#M)"
       d="M330.521 201.806c1.236-2.369 1.887-5.424 1.74-7.139.41-.131.676-.204.676-.204s1.207.979.42 3.591c-.597 1.986-2.134 3.257-2.836 3.752z"
       id="path114" /></g><path
     style="font-size:4.2513px;-inkscape-font-specification:sans-serif;text-align:center;letter-spacing:0;text-anchor:middle;fill:#e6e6e6;stroke:none;stroke-width:1.08569;stroke-linecap:round;stroke-linejoin:miter;stroke-dasharray:none;paint-order:stroke fill markers"
     d="m 31.028698,12.683342 c -2.316634,1.948904 -3.638914,3.280487 -3.638914,6.566546 0,3.287174 0.655851,4.476128 3.681227,6.677977 5.068034,3.690548 14.434006,5.134676 22.401536,3.455432 l 2.384334,-0.502548 2.257397,1.040753 c 3.656897,1.687044 9.420979,3.029771 9.766887,2.275392 0.09309,-0.200573 -0.647388,-0.741007 -1.643858,-1.198982 -1.804648,-0.830151 -4.111761,-2.822512 -4.623748,-3.992523 -0.195698,-0.446833 0.139633,-0.91818 1.232365,-1.731616 3.332145,-2.480423 4.388911,-6.55429 2.49329,-9.621947 C 64.161857,13.745266 60.94713,11.448702 57.986281,10.397921 54.522966,9.0061653 52.394624,8.7688203 45.895354,8.6707623 39.098836,8.7788483 33.88588,10.282034 31.028698,12.683342 Z"
     id="path141" /><path
     id="text145"
     style="font-weight:bold;font-size:5.57176px;font-family:'DejaVu Sans Mono';-inkscape-font-specification:'DejaVu Sans Mono Bold';text-align:center;letter-spacing:0px;text-anchor:middle;stroke-width:0.52235;stroke-linecap:round;paint-order:stroke fill markers"
     d="m 42.090571,22.654615 v 0.865146 h 1.041985 v 0.612132 h -1.041985 v 1.44191 q 0,0.204044 0.09794,0.293824 0.100662,0.08706 0.331912,0.08706 h 0.612132 v 0.612132 h -0.669264 q -0.685588,0 -0.92772,-0.217647 -0.242132,-0.220367 -0.242132,-0.813455 v -1.403822 h -0.778088 v -0.612132 h 0.778088 v -0.865148 z m 4.391026,1.934336 v 1.977866 h -0.79169 v -1.855439 q 0,-0.329191 -0.09522,-0.470662 -0.0925,-0.14147 -0.304705,-0.14147 -0.217647,0 -0.340074,0.193161 -0.122426,0.190441 -0.122426,0.530515 v 1.743895 h -0.791691 v -4.233232 h 0.791691 v 1.643234 q 0.08434,-0.253014 0.288382,-0.391764 0.204044,-0.13875 0.492426,-0.13875 0.432573,0 0.652941,0.288382 0.220367,0.285662 0.220366,0.854264 z m 2.345146,0.546838 q -0.446177,0 -0.623015,0.114265 -0.176838,0.114264 -0.176838,0.391764 0,0.206764 0.122427,0.329191 0.122426,0.122426 0.331911,0.122426 0.315588,0 0.489706,-0.236691 0.174117,-0.239411 0.174117,-0.666543 v -0.05441 z m 1.109999,-0.307426 v 1.738454 h -0.791691 v -0.340073 q -0.144191,0.201323 -0.37,0.310147 -0.225808,0.108823 -0.497867,0.108823 -0.519632,0 -0.810735,-0.274779 -0.288382,-0.274779 -0.288382,-0.767205 0,-0.533235 0.345515,-0.78625 0.345514,-0.255735 1.06919,-0.255735 h 0.552279 v -0.133308 q 0,-0.193162 -0.14147,-0.291103 -0.13875,-0.100662 -0.410809,-0.100662 -0.285661,0 -0.554999,0.07346 -0.266618,0.07074 -0.557721,0.228529 v -0.680146 q 0.263897,-0.108824 0.535956,-0.160515 0.272058,-0.05169 0.576764,-0.05169 0.74272,0 1.041985,0.301985 0.301985,0.301985 0.301985,1.080073 z m 2.217277,-2.173748 v 0.865146 h 1.041985 v 0.612132 h -1.041985 v 1.44191 q 0,0.204044 0.09794,0.293824 0.100662,0.08706 0.331912,0.08706 h 0.612132 v 0.612132 h -0.669264 q -0.685588,0 -0.92772,-0.217647 -0.242132,-0.220367 -0.242132,-0.813455 v -1.403822 h -0.778088 v -0.612132 h 0.778088 V 22.654617 Z M 32.276501,21.509556 q -0.201323,0.116986 -0.432573,0.174118 -0.23125,0.05985 -0.497868,0.05985 -0.704631,0 -1.101837,-0.424412 -0.397205,-0.424411 -0.397205,-1.175293 0,-0.753602 0.399926,-1.178013 0.399926,-0.427132 1.104558,-0.427132 0.244852,0 0.470661,0.05713 0.228529,0.05713 0.454338,0.176838 v 0.729117 q -0.174118,-0.149632 -0.383603,-0.228529 -0.206764,-0.08162 -0.429852,-0.08162 -0.389044,0 -0.598529,0.247573 -0.209485,0.247574 -0.209485,0.704632 0,0.457059 0.209485,0.701911 0.209485,0.244853 0.598529,0.244853 0.231249,0 0.432573,-0.07618 0.201323,-0.0789 0.380882,-0.236691 z m 2.372351,-1.275954 q -0.446176,0 -0.623014,0.114264 -0.176838,0.114265 -0.176838,0.391765 0,0.206764 0.122426,0.329191 0.122426,0.122426 0.331912,0.122426 0.315588,0 0.489705,-0.236691 0.174118,-0.239412 0.174118,-0.666544 v -0.05441 z m 1.109999,-0.307427 v 1.738455 h -0.79169 v -0.340073 q -0.144192,0.201323 -0.37,0.310146 -0.225809,0.108824 -0.497867,0.108824 -0.519632,0 -0.810735,-0.274779 -0.288382,-0.27478 -0.288382,-0.767206 0,-0.533234 0.345514,-0.786249 0.345515,-0.255735 1.069191,-0.255735 h 0.552279 v -0.133309 q 0,-0.193161 -0.141471,-0.291102 -0.13875,-0.100662 -0.410808,-0.100662 -0.285662,0 -0.555,0.07346 -0.266617,0.07073 -0.55772,0.228529 v -0.680147 q 0.263897,-0.108823 0.535955,-0.160514 0.272059,-0.05169 0.576765,-0.05169 0.74272,0 1.041984,0.301985 0.301985,0.301985 0.301985,1.080072 z m 3.253821,-0.239411 v 1.977866 h -0.79169 v -1.85544 q 0,-0.331911 -0.09522,-0.473382 -0.0925,-0.144191 -0.304706,-0.144191 -0.214926,0 -0.340073,0.193162 -0.122426,0.193161 -0.122426,0.535955 v 1.743896 h -0.791691 v -3.047056 h 0.791691 v 0.457058 q 0.08434,-0.253015 0.288382,-0.391764 0.204044,-0.13875 0.492426,-0.13875 0.432573,0 0.652941,0.288382 0.220367,0.285661 0.220366,0.854264 z m 2.46213,-2.083969 v 1.509925 h -0.69647 v -1.509925 z m 3.210292,0.149632 v 0.865147 h 1.041985 v 0.612131 h -1.041985 v 1.441911 q 0,0.204044 0.09794,0.293823 0.100662,0.08706 0.331912,0.08706 h 0.612132 v 0.612132 h -0.669265 q -0.685587,0 -0.927719,-0.217647 -0.242133,-0.220367 -0.242133,-0.813455 v -1.403823 h -0.778087 v -0.612131 h 0.778087 v -0.865148 z m 6.842274,0.598529 v 0.266618 h 0.935882 v 0.612131 h -0.935882 v 2.434925 h -0.797132 v -2.434925 h -0.739999 v -0.612131 h 0.739999 v -0.212206 q 0,-0.549559 0.22853,-0.761764 0.228529,-0.212206 0.848822,-0.212206 h 0.655662 v 0.612132 h -0.623015 q -0.179558,0 -0.244852,0.06529 -0.06257,0.06529 -0.06801,0.242132 z m 1.945219,0.266618 h 1.57794 v 2.434924 h 0.990293 v 0.612132 h -2.780439 v -0.612132 h 0.993014 v -1.822793 h -0.780808 z m 0.780808,-1.48272 h 0.797132 v 0.930441 h -0.797132 z m 4.886173,2.55191 v 1.977866 h -0.791691 v -1.85544 q 0,-0.331911 -0.09522,-0.473382 -0.0925,-0.144191 -0.304706,-0.144191 -0.214926,0 -0.340073,0.193162 -0.122426,0.193161 -0.122426,0.535955 v 1.743896 h -0.791691 v -3.047056 h 0.791691 v 0.457058 q 0.08434,-0.253015 0.288382,-0.391764 0.204044,-0.13875 0.492426,-0.13875 0.432573,0 0.65294,0.288382 0.220368,0.285661 0.220368,0.854264 z m 2.592719,-0.636617 v -1.618749 h 0.794411 v 4.233232 h -0.794411 v -0.451617 q -0.127868,0.263896 -0.331912,0.397205 -0.201323,0.133309 -0.476103,0.133309 -0.522352,0 -0.810734,-0.41897 -0.288382,-0.418971 -0.288382,-1.180735 0,-0.772646 0.291102,-1.186175 0.293824,-0.413529 0.83522,-0.413529 0.244853,0 0.438015,0.127867 0.195882,0.125147 0.342794,0.378162 z m -1.11,1.099116 q 0,0.440735 0.146912,0.691029 0.146912,0.250294 0.405367,0.250294 0.258456,0 0.408088,-0.250294 0.149633,-0.250294 0.149633,-0.691029 0,-0.440734 -0.149633,-0.691028 -0.149632,-0.250294 -0.408088,-0.250294 -0.258455,0 -0.405367,0.250294 -0.146912,0.250294 -0.146912,0.691028 z M 34.000436,14.840944 q -0.60669,-0.23125 -0.821616,-0.484265 -0.214927,-0.255735 -0.214927,-0.685587 0,-0.552279 0.353676,-0.867867 0.353677,-0.315588 0.97125,-0.315588 0.28022,0 0.56044,0.06529 0.280221,0.06257 0.555,0.18772 v 0.783529 q -0.258456,-0.182279 -0.525073,-0.2775 -0.266618,-0.09522 -0.527794,-0.09522 -0.291103,0 -0.446176,0.116985 -0.155073,0.116985 -0.155073,0.334632 0,0.168676 0.111544,0.28022 0.114264,0.108824 0.473382,0.242133 l 0.345514,0.130588 q 0.489705,0.179558 0.720955,0.476102 0.23125,0.296544 0.23125,0.748161 0,0.614853 -0.364558,0.919559 -0.361838,0.301985 -1.096397,0.301985 -0.301985,0 -0.60669,-0.07346 -0.301985,-0.07073 -0.584926,-0.212206 v -0.829779 q 0.321029,0.22853 0.620293,0.340074 0.301985,0.111544 0.595809,0.111544 0.296544,0 0.459779,-0.133309 0.163235,-0.136029 0.163235,-0.378162 0,-0.182279 -0.108824,-0.318308 -0.108823,-0.13875 -0.315588,-0.217647 z m 3.642865,-0.691029 q -0.285661,0 -0.448896,0.253014 -0.163236,0.250294 -0.163236,0.699191 0,0.448897 0.163236,0.701911 0.163235,0.250294 0.448896,0.250294 0.288382,0 0.451618,-0.250294 0.163235,-0.253014 0.163235,-0.701911 0,-0.448897 -0.163235,-0.699191 -0.163236,-0.253014 -0.451618,-0.253014 z m -1.409263,0.952205 q 0,-0.737279 0.380882,-1.167131 0.383602,-0.432574 1.028381,-0.432574 0.6475,0 1.028382,0.432574 0.383602,0.429852 0.383602,1.167131 0,0.737279 -0.383602,1.169852 -0.380882,0.429853 -1.028382,0.429853 -0.644779,0 -1.028381,-0.429853 -0.380882,-0.432573 -0.380882,-1.169852 z m 6.219259,-0.685588 q -0.130588,-0.119705 -0.307426,-0.179558 -0.174117,-0.05985 -0.383602,-0.05985 -0.253015,0 -0.443456,0.08978 -0.18772,0.08706 -0.291103,0.255735 -0.06529,0.103382 -0.0925,0.250294 -0.02449,0.146912 -0.02449,0.446176 v 1.403823 h -0.797132 v -3.047057 h 0.797132 v 0.473382 q 0.116985,-0.261176 0.359118,-0.402647 0.242132,-0.144191 0.565881,-0.144191 0.163236,0 0.318309,0.04081 0.157794,0.03809 0.299264,0.114265 z m 3.354483,0 q -0.130588,-0.119705 -0.307426,-0.179558 -0.174118,-0.05985 -0.383603,-0.05985 -0.253014,0 -0.443455,0.08978 -0.187721,0.08706 -0.291103,0.255735 -0.06529,0.103382 -0.0925,0.250294 -0.02448,0.146912 -0.02448,0.446176 v 1.403823 h -0.797132 v -3.047057 h 0.797132 v 0.473382 q 0.116985,-0.261176 0.359117,-0.402647 0.242132,-0.144191 0.565882,-0.144191 0.163235,0 0.318309,0.04081 0.157794,0.03809 0.299264,0.114265 z m 2.157425,2.535586 q -0.160515,0.429853 -0.386323,0.625735 -0.223088,0.198603 -0.544118,0.198603 h -0.658381 v -0.606691 h 0.323749 q 0.244853,0 0.359118,-0.08434 0.114264,-0.08162 0.23125,-0.383602 l 0.05985,-0.163236 -1.158969,-2.962718 h 0.83794 l 0.69647,1.977866 0.666544,-1.977866 h 0.83794 z m 4.774629,-3.376247 h 0.663823 l 0.361837,2.334263 0.329191,-1.537131 h 0.644779 l 0.32375,1.537131 0.367279,-2.334263 h 0.663823 l -0.552279,3.047057 h -0.756323 l -0.369999,-1.583381 -0.36728,1.583381 h -0.756323 z m 6.352568,2.897424 q -0.2775,0.114265 -0.565882,0.171397 -0.288382,0.05713 -0.609411,0.05713 -0.764485,0 -1.169852,-0.408088 -0.402647,-0.410809 -0.402647,-1.180735 0,-0.74544 0.389044,-1.178013 0.389044,-0.432574 1.061028,-0.432574 0.677426,0 1.050147,0.402647 0.375441,0.399926 0.375441,1.129043 v 0.32375 h -2.064925 q 0.0027,0.359117 0.212205,0.535956 0.209486,0.176838 0.625735,0.176838 0.274779,0 0.541397,-0.0789 0.266617,-0.0789 0.55772,-0.250294 z m -0.674705,-1.713969 q -0.0054,-0.315588 -0.163236,-0.476102 -0.155073,-0.163236 -0.459779,-0.163236 -0.274779,0 -0.438014,0.168677 -0.163235,0.165956 -0.193162,0.473382 z" /></svg>
