<svg width="434.423" height="383.563" xmlns="http://www.w3.org/2000/svg"><text xml:space="preserve" style="text-align:start;writing-mode:lr-tb;direction:ltr;text-anchor:start;fill:#3f337c;fill-opacity:1;stroke:#41347c;stroke-width:1;stroke-linecap:round;stroke-linejoin:round;stroke-dasharray:none;stroke-opacity:1;paint-order:stroke fill markers" x="40.607" y="362.61" transform="translate(8.303 9.549)"/><path style="fill:#0b8ba8;fill-opacity:1;stroke:none" d="M343.765 202.752c1.975 7.035 8.786 11.452 14 16.17 10.165 9.197 20.694 18.7 29.942 28.83 7.074 7.75 2.724 18.533 4.387 28 .901 5.131 3.834 10.099 7.765 13.482 2.223 1.914 6.383 3.59 7.156 6.703.72 2.902-2 5.637-3.484 7.815-3.472 5.1-6.517 10.578-9.457 16-6.21 11.454-15.782 40.546-33.246 33.397-5.985-2.45-1.634-10.688-1.635-15.397 0-8.42-4.835-15.783-12.428-19.355-7.204-3.388-15.266-2.645-23-2.645h-227c-4.753 0-13.96 1.761-17.396-2.318-3.548-4.21-1.604-14.495-1.604-19.682v-53c-4.514 1.044-14.173 2.524-16.972 6.51-3.316 4.723-1.028 16.87-1.028 22.49 0 18.257-7.587 54.914 14 63.12 8.355 3.176 18.223 1.88 27 1.88h51c60.137 0 120.925-2.613 180.996.02 11.539.505 3.306 17.844 6.974 25.98 5.873 13.026 23.72 14.708 36.03 12.381 15.9-3.004 22.604-22.806 29.99-35.38 3.499-5.96 6.604-12.388 10.644-18 3.545-4.928 8.326-8.622 9.178-15 .825-6.176 1.176-14.698-2.465-20-3.356-4.89-9.652-8.329-11.743-14-2.98-8.08 1.38-17.786-1.574-26-4.815-13.396-22.173-25.144-32.03-35-3.884-3.885-8.5-10.182-14-11.762-5.577-1.603-14.64 3.047-20 4.761" transform="translate(8.303 9.549)"/><path style="fill:#3f337c;fill-opacity:1;stroke:none" d="M259.765 132.752h-1c-1.56-6.583-4.53-12.702-6.936-19-.85-2.224-1.41-5.551-3.574-6.933-2.393-1.528-6.052-.083-8.489.655-10.139 3.07-11.228 16.817-12 26.278h-1l-8-26-20 6c3.414 12.512 9.678 21.097 6 34h-1c-.937-7.25-2.765-14.555-8.106-19.895-12.642-12.643-34.332-7.585-44.106 5.899-10.574 14.588-3.457 32.204-14.789 45.996 0-14.934 2.196-48.916-23-40.775-3.129 1.01-5.49 2.72-8 4.775v-23l-19.972 7.419-1.028 21.581v40l1 22c4.65-1.736 16.178-3.476 18.397-8.278 3.51-7.598.56-22.375.604-30.722.026-4.83.766-10.892 5.97-13.079 5.943-2.496 5.03 9.147 5.03 12.08 0 6.466-.392 13.119 2.915 18.959 5.972 10.544 18.811 7.487 25.98-.003 3.28-3.428 5.302-7.628 7.104-11.957 11.463 8.154 26.75 8.182 37.986-.68 4.285-3.381 6.654-8.159 10.529-11.85 4.111-3.915 9.336-6.417 13.485-10.47l5 15c5.064-1.171 13.754-2.628 17.436-6.51 4.488-4.731 5.434-18.2 5.564-24.49h2c.424 4.855 2.39 17.012 6.702 19.932 3.753 2.54 14.931-2.625 17.78-5.35 7.586-7.258 11.574-20.774 14.482-30.582 2.503-8.44 3.745-19.347-1.616-26.996-5.71-8.148-18.312-11.941-24.338-2-5.928 9.78 4.92 12.102 6.633 20.036 1.223 5.662-2.386 12.528-3.643 17.96m-83 33c-14.377 3.382-17.007-15.621-7.786-23.566 3.439-2.963 11.844-3.355 12.726 2.57.544 3.656-4.655 6.76-5.926 10-1.473 3.755.227 7.297.986 10.996m-139 46 8-21c-4.274-2.697-8.921-5.134-14-5.819-23.284-3.14-38.396 18.3-29.12 39.82 4.378 10.154 13.592 16.723 24.12 19.25 33.185 7.965 68.735-30.833 47.23-61.247-6.206-8.776-15.014-15.398-24.23-20.72-6.39-3.69-15.615-7.923-18.476-15.284-4.413-11.355 9.331-12.89 16.476-11-11.467 17.374 17.097 30.32 24.107 12 4.923-12.866-6.53-26.873-18.107-30.899-18.331-6.374-43.591 5.344-45.826 25.9-2.553 23.475 15.154 31.013 31.826 42.343 8.617 5.856 19.78 15.829 14.991 27.656-4.82 11.903-23.007 16.295-30.208 3.985-2.083-3.561-.383-8.937 4.236-9.157 3.22-.153 6.374 2.605 8.981 4.172m219-33-22.362 6.935-7.885 14.065-16.753 34c-6.286-7.375-11.06-15.907-16.344-24-1.945-2.979-4.31-8.307-7.84-9.646-4.056-1.54-10.527 2.24-14.816 2.556-14.527 1.067-28.46 2.042-38.671 14.105-15.297 18.072-7.542 52.286 15.671 59.985 2.582-4.637 10.633-12.507 9.979-17.985-.523-4.378-6.556-8.045-8.551-12.016-6.96-13.852 2.015-25.988 16.572-25.999l-1.04 30-1.96 52 21.398-7.702 2.602-15.298v-39l22 32h1c8.896-10.825 18.113-28.506 22-42h1v34c0 6.342-.614 13.183 2.442 19 9.689 18.441 31.864 8.257 36.558-8l-10-7-3 6h-2c-2.554-10.73-.514-22.166-.04-33 .422-9.624-.703-19.405.21-29 .916-9.624 3.628-24.95-.17-34m62 43c-3.013 14.56-12.21 29.07-29 26v-2c6.638-1.815 13.018-4.86 17.672-10.09 8.39-9.43 8.718-26.23-4.672-31.347-7.88-3.01-17.011-.367-24 3.79-17.09 10.166-21.621 41.002-4.91 53.858 8.497 6.536 20.393 5.714 29.91 1.963 11.46-4.517 18.667-13.884 22.935-25.174 3.812-10.085 4.164-16.99-7.935-17m-34 13c.16-3.437 3.302-16.695 9.378-11.953 5.358 4.181-6.652 10.774-9.378 11.953" transform="translate(8.303 9.549)"/><path style="fill:#49bc7f;fill-opacity:1;stroke:none" d="M63.765 103.752c-3.49-9.207-13.986-17.119-15.411-27-1.698-11.775 6.83-27.347-2.867-37.79-7.098-7.643-19.772-12.19-28.721-17.38-3.311-1.921-8.145-5.123-6.378-9.683 1.778-4.586 9.54-3.147 13.377-3.147h210c4.13 0 10.982-1.286 14.61 1.028 2.862 1.825 4.22 6.128 5.814 8.972 3.024 5.395 7.418 11.815 8.363 18 1.11 7.255-.877 14.82.974 22 3.718 14.424 21.123 25.884 31.24 36 3.542 3.543 7.952 9.905 13 11.223 5.96 1.557 14.896-3.401 21-4.223-9.099-19.51-35.412-28.655-45.973-47.285-3.281-5.789-.301-15.277-1.238-21.715-.685-4.713-3.399-8.838-5.532-13-4.65-9.072-8.683-22.395-18.258-27.427-4.722-2.482-10.84-1.573-16-1.573h-217c-9.728 0-21.65-2.341-28.61 6.043-3.453 4.16-4.362 8.71-4.389 13.957-.03 5.79-.632 11.784 2.367 16.996 5.124 8.906 17.139 13.368 25.632 18.4 3.203 1.899 7.965 3.621 9.972 6.933 4.285 7.066-1.487 17.267-1.207 24.671.318 8.43 6.625 16.409 11.272 23 1.792 2.543 3.987 6.297 7.134 7.303 4.7 1.504 12.346-2.844 16.83-4.303" transform="translate(8.303 9.549)"/><path style="fill:#daa449;stroke:#41347c;stroke-width:24;stroke-linecap:round;stroke-linejoin:round;stroke-dasharray:none;paint-order:stroke fill markers" d="m329.231 176.453 3.3-20.668-15.154-14.436 20.676-3.248 9.046-18.873 9.478 18.66 20.746 2.771-14.818 14.78 3.775 20.587-18.637-9.525z" transform="translate(8.303 9.549)"/><text xml:space="preserve" style="font-size:29.3333px;text-align:start;letter-spacing:8px;writing-mode:lr-tb;direction:ltr;text-anchor:start;fill:#3f337c;fill-opacity:1;stroke:#41347c;stroke-width:2.6;stroke-linecap:round;stroke-linejoin:round;stroke-dasharray:none;stroke-opacity:1;paint-order:stroke fill markers" x="63.403" y="371.159" transform="translate(8.303 9.549)"><tspan x="63.403" y="371.159" style="font-style:normal;font-variant:normal;font-weight:400;font-stretch:normal;font-size:29.3333px;font-family:sans-serif;-inkscape-font-specification:sans-serif;letter-spacing:8px;stroke-width:2.6;stroke-dasharray:none">SHOWDOWN</tspan></text></svg>